{"asset":{"version":"2.0","generator":"VECTARY"},"scene":0,"extensionsUsed":["KHR_texture_transform"],"nodes":[{"translation":[0,0,0],"scale":[0.001,0.001,0.001],"rotation":[-0.7071067811865475,0,0,0.7071067811865476],"name":"House","children":[1,2,3,4,5,6,7]},{"translation":[-3.552713678800501e-15,-0.4724998474121094,2.9999999999999964],"scale":[1,1,1],"rotation":[0,0,0,1],"name":"Main_building","mesh":0},{"translation":[-3.552713678800501e-15,8.02750015258789,-3.1554436208840472e-30],"scale":[1,1,1],"rotation":[0,0,0,1],"name":"Roof 2","mesh":1},{"translation":[-3.552713678800501e-15,8.02750015258789,-3.1554436208840472e-30],"scale":[1,1,1],"rotation":[0,0,0,1],"name":"Deck","mesh":2},{"translation":[-3.552713678800501e-15,8.02750015258789,-3.1554436208840472e-30],"scale":[1,1,1],"rotation":[0,0,0,1],"name":"Pillars","mesh":3},{"translation":[-3.552713678800501e-15,8.02750015258789,-3.1554436208840472e-30],"scale":[1,1,1],"rotation":[0,0,0,1],"name":"Window_frames","mesh":4},{"translation":[-3.552713678800501e-15,8.02750015258789,-3.1554436208840472e-30],"scale":[1,1,1],"rotation":[0,0,0,1],"name":"Window_glass","mesh":5},{"translation":[-3.552713678800501e-15,8.02750015258789,-3.1554436208840472e-30],"scale":[1,1,1],"rotation":[0,0,0,1],"name":"Door","mesh":6}],"materials":[{"pbrMetallicRoughness":{"baseColorFactor":[0.25098039215686274,0.807843137254902,0.4823529411764706,1],"metallicFactor":0,"roughnessFactor":1},"name":"Main_building material 4","emissiveFactor":[0,0,0],"alphaMode":"OPAQUE","doubleSided":false},{"pbrMetallicRoughness":{"baseColorFactor":[0.9764705882352941,0.32941176470588235,0.4392156862745098,1],"metallicFactor":0,"roughnessFactor":1},"name":"Roof material 5","emissiveFactor":[0,0,0],"alphaMode":"OPAQUE","doubleSided":false},{"pbrMetallicRoughness":{"baseColorFactor":[0.8,0.8,0.8,1],"metallicFactor":0,"roughnessFactor":1},"name":"Deck material","emissiveFactor":[0,0,0],"alphaMode":"OPAQUE","doubleSided":false},{"pbrMetallicRoughness":{"baseColorFactor":[0.8,0.8,0.8,1],"metallicFactor":0,"roughnessFactor":1},"name":"Pillars material","emissiveFactor":[0,0,0],"alphaMode":"OPAQUE","doubleSided":false},{"pbrMetallicRoughness":{"baseColorFactor":[0.8,0.8,0.8,1],"metallicFactor":0,"roughnessFactor":1},"name":"Window_frames material 3","emissiveFactor":[0,0,0],"alphaMode":"OPAQUE","doubleSided":false},{"pbrMetallicRoughness":{"baseColorFactor":[0.24313725490196078,0.24705882352941178,0.3176470588235294,1],"metallicFactor":0,"roughnessFactor":0},"name":"Window_glass material 2","emissiveFactor":[0,0,0],"alphaMode":"OPAQUE","doubleSided":false},{"pbrMetallicRoughness":{"baseColorFactor":[0.8,0.8,0.8,1],"metallicFactor":0,"roughnessFactor":0.2},"name":"Door material 2","emissiveFactor":[0,0,0],"alphaMode":"OPAQUE","doubleSided":false}],"meshes":[{"primitives":[{"mode":4,"attributes":{"POSITION":1,"NORMAL":2,"TEXCOORD_0":3},"material":0,"indices":0}]},{"primitives":[{"mode":4,"attributes":{"POSITION":5,"NORMAL":6,"TEXCOORD_0":7},"material":1,"indices":4}]},{"primitives":[{"mode":4,"attributes":{"POSITION":9,"NORMAL":10,"TEXCOORD_0":11},"material":2,"indices":8}]},{"primitives":[{"mode":4,"attributes":{"POSITION":13,"NORMAL":14,"TEXCOORD_0":15},"material":3,"indices":12}]},{"primitives":[{"mode":4,"attributes":{"POSITION":17,"NORMAL":18,"TEXCOORD_0":19},"material":4,"indices":16}]},{"primitives":[{"mode":4,"attributes":{"POSITION":21,"NORMAL":22,"TEXCOORD_0":23},"material":5,"indices":20}]},{"primitives":[{"mode":4,"attributes":{"POSITION":25,"NORMAL":26,"TEXCOORD_0":27},"material":6,"indices":24}]}],"accessors":[{"bufferView":0,"byteOffset":0,"componentType":5125,"count":624,"type":"SCALAR"},{"bufferView":1,"byteOffset":0,"componentType":5126,"count":624,"max":[30,28.5,38],"min":[-30,-28.5,0],"type":"VEC3"},{"bufferView":2,"byteOffset":0,"componentType":5126,"count":624,"type":"VEC3"},{"bufferView":3,"byteOffset":0,"componentType":5126,"count":624,"type":"VEC2"},{"bufferView":4,"byteOffset":0,"componentType":5125,"count":144,"type":"SCALAR"},{"bufferView":5,"byteOffset":0,"componentType":5126,"count":144,"max":[33,23.94499969482422,42.340999603271484],"min":[-33,-40,26.941999435424805],"type":"VEC3"},{"bufferView":6,"byteOffset":0,"componentType":5126,"count":144,"type":"VEC3"},{"bufferView":7,"byteOffset":0,"componentType":5126,"count":144,"type":"VEC2"},{"bufferView":8,"byteOffset":0,"componentType":5125,"count":432,"type":"SCALAR"},{"bufferView":9,"byteOffset":0,"componentType":5126,"count":432,"max":[28,18,3],"min":[-28,-40,0],"type":"VEC3"},{"bufferView":10,"byteOffset":0,"componentType":5126,"count":432,"type":"VEC3"},{"bufferView":11,"byteOffset":0,"componentType":5126,"count":432,"type":"VEC2"},{"bufferView":12,"byteOffset":0,"componentType":5125,"count":72,"type":"SCALAR"},{"bufferView":13,"byteOffset":0,"componentType":5126,"count":72,"max":[13,-34,29.00200080871582],"min":[-13,-36,3],"type":"VEC3"},{"bufferView":14,"byteOffset":0,"componentType":5126,"count":72,"type":"VEC3"},{"bufferView":15,"byteOffset":0,"componentType":5126,"count":72,"type":"VEC2"},{"bufferView":16,"byteOffset":0,"componentType":5125,"count":1632,"type":"SCALAR"},{"bufferView":17,"byteOffset":0,"componentType":5126,"count":1632,"max":[29.20800018310547,16.579999923706055,22.523000717163086],"min":[-29.20800018310547,-19.20800018310547,10.581999778747559],"type":"VEC3"},{"bufferView":18,"byteOffset":0,"componentType":5126,"count":1632,"type":"VEC3"},{"bufferView":19,"byteOffset":0,"componentType":5126,"count":1632,"type":"VEC2"},{"bufferView":20,"byteOffset":0,"componentType":5125,"count":288,"type":"SCALAR"},{"bufferView":21,"byteOffset":0,"componentType":5126,"count":288,"max":[28.2189998626709,16.579999923706055,22.523000717163086],"min":[-28.2189998626709,-18.2189998626709,10.581999778747559],"type":"VEC3"},{"bufferView":22,"byteOffset":0,"componentType":5126,"count":288,"type":"VEC3"},{"bufferView":23,"byteOffset":0,"componentType":5126,"count":288,"type":"VEC2"},{"bufferView":24,"byteOffset":0,"componentType":5125,"count":468,"type":"SCALAR"},{"bufferView":25,"byteOffset":0,"componentType":5126,"count":468,"max":[4.982999801635742,-18,21.106000900268555],"min":[-4.982999801635742,-20.542999267578125,3.4509999752044678],"type":"VEC3"},{"bufferView":26,"byteOffset":0,"componentType":5126,"count":468,"type":"VEC3"},{"bufferView":27,"byteOffset":0,"componentType":5126,"count":468,"type":"VEC2"}],"bufferViews":[{"buffer":0,"byteOffset":0,"byteLength":2496,"target":34963},{"buffer":0,"byteOffset":2496,"byteLength":7488,"target":34962},{"buffer":0,"byteOffset":9984,"byteLength":7488,"target":34962},{"buffer":0,"byteOffset":17472,"byteLength":4992,"target":34962},{"buffer":0,"byteOffset":22464,"byteLength":576,"target":34963},{"buffer":0,"byteOffset":23040,"byteLength":1728,"target":34962},{"buffer":0,"byteOffset":24768,"byteLength":1728,"target":34962},{"buffer":0,"byteOffset":26496,"byteLength":1152,"target":34962},{"buffer":0,"byteOffset":27648,"byteLength":1728,"target":34963},{"buffer":0,"byteOffset":29376,"byteLength":5184,"target":34962},{"buffer":0,"byteOffset":34560,"byteLength":5184,"target":34962},{"buffer":0,"byteOffset":39744,"byteLength":3456,"target":34962},{"buffer":0,"byteOffset":43200,"byteLength":288,"target":34963},{"buffer":0,"byteOffset":43488,"byteLength":864,"target":34962},{"buffer":0,"byteOffset":44352,"byteLength":864,"target":34962},{"buffer":0,"byteOffset":45216,"byteLength":576,"target":34962},{"buffer":0,"byteOffset":45792,"byteLength":6528,"target":34963},{"buffer":0,"byteOffset":52320,"byteLength":19584,"target":34962},{"buffer":0,"byteOffset":71904,"byteLength":19584,"target":34962},{"buffer":0,"byteOffset":91488,"byteLength":13056,"target":34962},{"buffer":0,"byteOffset":104544,"byteLength":1152,"target":34963},{"buffer":0,"byteOffset":105696,"byteLength":3456,"target":34962},{"buffer":0,"byteOffset":109152,"byteLength":3456,"target":34962},{"buffer":0,"byteOffset":112608,"byteLength":2304,"target":34962},{"buffer":0,"byteOffset":114912,"byteLength":1872,"target":34963},{"buffer":0,"byteOffset":116784,"byteLength":5616,"target":34962},{"buffer":0,"byteOffset":122400,"byteLength":5616,"target":34962},{"buffer":0,"byteOffset":128016,"byteLength":3744,"target":34962}],"scenes":[{"nodes":[0],"name":"Project Name"}],"buffers":[{"byteLength":131760,"uri":"ProjectName.bin"}]}